HIERARCHY
ROOT Hips
{
	OFFSET 0.000000 0.000000 0.000000 
	CHANNELS 6 Xposition Yposition Zposition Yrotation Zrotation Xrotation 
	JOINT Lumbar
	{
		OFFSET 0.000000 0.000000 0.000000 
		CHANNELS 3 Zrotation Xrotation Yrotation
		JOINT Neck
		{
			OFFSET 0.000000 0.445665 0.000000 
			CHANNELS 3 Zrotation Xrotation Yrotation
			End Site
			{
				OFFSET 0.000000 0.227535 0.000000 
			}
		}
		JOINT RightShoulder
		{
			OFFSET 0.019635 0.377685 0.194865 
			CHANNELS 3 Zrotation Xrotation Yrotation
			JOINT RightElbow
			{
				OFFSET 0.000000 -0.243375 0.000000 
				CHANNELS 2 Zrotation Yrotation
				JOINT RightWrist
				{
					OFFSET 0.000000 -0.264825 0.000000 
					CHANNELS 2 Zrotation Xrotation
					End Site
					{
						OFFSET 0.006600 -0.176220 0.000990 
					}
				}
			}
		}
		JOINT LeftShoulder
		{
			OFFSET 0.019635 0.377685 -0.194865 
			CHANNELS 3 Zrotation Xrotation Yrotation
			JOINT LeftElbow
			{
				OFFSET 0.000000 -0.243375 0.000000 
				CHANNELS 2 Zrotation Yrotation
				JOINT LeftWrist
				{
					OFFSET 0.000000 -0.264825 0.000000 
					CHANNELS 2 Zrotation Xrotation
					End Site
					{
						OFFSET 0.006600 -0.176220 -0.000990 
					}
				}
			}
		}
	}
	JOINT RightHip
	{
		OFFSET 0.052140 -0.069960 0.075570 
		CHANNELS 3 Zrotation Xrotation Yrotation
		JOINT RightKnee
		{
			OFFSET 0.000000 -0.402270 0.000000 
			CHANNELS 1 Zrotation
			JOINT RightAnkle
			{
				OFFSET 0.000000 -0.404085 0.000000 
				CHANNELS 3 Zrotation Xrotation Yrotation
				End Site
				{
					OFFSET 0.204105 -0.089430 0.008415 
				}
			}
		}
	}
	JOINT LeftHip
	{
		OFFSET 0.052140 -0.069960 -0.075570 
		CHANNELS 3 Zrotation Xrotation Yrotation
		JOINT LeftKnee
		{
			OFFSET 0.000000 -0.402270 0.000000 
			CHANNELS 1 Zrotation
			JOINT LeftAnkle
			{
				OFFSET 0.000000 -0.404085 0.000000 
				CHANNELS 3 Zrotation Xrotation Yrotation
				End Site
				{
					OFFSET 0.204105 -0.089430 -0.008415 
				}
			}
		}
	}
}
MOTION
Frames: 22
Frame Time: 0.02
0.00109 -3e-05 -0.00036 -178.61186 -27.50206 1.25981 42.06444 -0.86287 -6.55875 -12.11963 6.50367 -1.21272 -16.47606 -3.96729 -14.81922 20.27999 116.93623 12.15167 6.04711 -22.86323 7.99004 -2.30636 32.78488 -105.3545 15.24905 -2.14697 28.61948 -2.80128 -3.87094 -20.75518 -7.1662 -4.1454 -4.27681 33.81279 5.57038 4.93125 -24.76748 -6.44984 2.28419 3.3592
0.00125 -3e-05 -0.00011 -178.7162 -27.47968 1.25118 42.06597 -0.86338 -6.54606 -12.18923 6.52404 -1.21435 -16.50612 -3.97262 -14.78587 20.29779 116.94719 12.15403 6.04259 -22.90986 7.97686 -2.24114 32.80594 -105.34428 15.25186 -2.15006 28.58493 -2.93241 -4.4647 -20.75089 -7.11267 -4.09428 -4.24791 33.77774 5.59124 5.07734 -24.77854 -6.4483 2.28063 3.35512
0.0014 -3e-05 0.00015 -178.82057 -27.45743 1.24253 42.06754 -0.86382 -6.53342 -12.25868 6.54443 -1.21599 -16.53603 -3.97798 -14.7526 20.31549 116.95807 12.15632 6.0381 -22.95671 7.96375 -2.1761 32.82742 -105.33435 15.2548 -2.15318 28.55055 -3.06328 -5.05691 -20.74659 -7.05925 -4.04325 -4.21906 33.74285 5.61202 5.223 -24.78963 -6.44676 2.2771 3.35107
0.00156 -3e-05 0.00041 -178.92463 -27.43513 1.23393 42.06907 -0.86432 -6.52077 -12.32808 6.56475 -1.21762 -16.56599 -3.9833 -14.71934 20.33323 116.96888 12.15864 6.03358 -23.00325 7.95062 -2.11111 32.84849 -105.32399 15.25756 -2.15623 28.51612 -3.19403 -5.64891 -20.74231 -7.00588 -3.99227 -4.19025 33.70792 5.63281 5.36864 -24.80067 -6.44523 2.27355 3.34701
0.00171 -2e-05 0.00066 -179.02858 -27.41268 1.22536 42.07054 -0.86491 -6.50805 -12.39761 6.58503 -1.21925 -16.59612 -3.98855 -14.68605 20.35109 116.98011 12.1611 6.02907 -23.04947 7.93737 -2.04588 32.86899 -105.31385 15.26034 -2.15934 28.48147 -3.32501 -6.24228 -20.73803 -6.95241 -3.94123 -4.16139 33.67282 5.65368 5.5147 -24.81165 -6.44369 2.26995 3.34292
0.00187 -2e-05 0.00092 -179.13383 -27.39085 1.21653 42.0723 -0.86505 -6.49559 -12.46687 6.60566 -1.22088 -16.62554 -3.99417 -14.65282 20.36843 116.9904 12.16308 6.02465 -23.09765 7.92456 -1.98119 32.89252 -105.30469 15.26373 -2.16252 28.44768 -3.45561 -6.83197 -20.73372 -6.89911 -3.89021 -4.13258 33.63835 5.67424 5.65954 -24.82297 -6.44216 2.26659 3.33896
0.00202 -2e-05 0.00117 -179.23627 -27.3678 1.20826 42.0735 -0.86609 -6.4826 -12.5366 6.62554 -1.22251 -16.65637 -3.99903 -14.61943 20.38683 117.00175 12.16586 6.01993 -23.14174 7.91092 -1.91568 32.90986 -105.29201 15.26535 -2.16532 28.41219 -3.58684 -7.42857 -20.72947 -6.84552 -3.83919 -4.1037 33.60269 5.69542 5.80661 -24.83359 -6.44061 2.26275 3.33473
0.00218 -2e-05 0.00143 -179.34145 -27.34587 1.19944 42.07518 -0.86629 -6.47015 -12.60591 6.64616 -1.22414 -16.68587 -4.00458 -14.58635 20.4042 117.01363 12.1682 6.01574 -23.18976 7.89797 -1.85057 32.93304 -105.2854 15.26958 -2.1689 28.37828 -3.71746 -8.01851 -20.72516 -6.79221 -3.78819 -4.0749 33.56807 5.71602 5.95174 -24.84486 -6.43908 2.25935 3.33075
0.00233 -2e-05 0.0017 -179.4495 -27.32534 1.19005 42.07757 -0.86549 -6.45816 -12.67468 6.6675 -1.22576 -16.71387 -4.01106 -14.55298 20.4205 117.02016 12.1688 6.01119 -23.24205 7.88618 -1.78735 32.96295 -105.27504 15.27316 -2.17174 28.34625 -3.84752 -8.60176 -20.72078 -6.73917 -3.73712 -4.04611 33.53495 5.73596 6.09413 -24.85694 -6.43759 2.25649 3.32709
0.00249 -2e-05 0.00191 -179.53958 -27.29684 1.18424 42.07626 -0.87053 -6.44291 -12.74649 6.68413 -1.22745 -16.7509 -4.01246 -14.51927 20.44351 117.03946 12.17583 6.00566 -23.26819 7.86867 -1.71747 32.95292 -105.25269 15.26893 -2.17375 28.30327 -3.98138 -9.22788 -20.71681 -6.68434 -3.68616 -4.01703 33.49385 5.75982 6.25117 -24.86441 -6.43591 2.25055 3.32164
0.00264 -1e-05 0.00225 -179.66847 -27.28511 1.17071 42.08251 -0.86321 -6.43495 -12.81194 6.71107 -1.22897 -16.76864 -4.0244 -14.48754 20.45202 117.04333 12.17157 6.00413 -23.35047 7.8626 -1.65894 33.02787 -105.27704 15.28857 -2.18076 28.28345 -4.10684 -9.76069 -20.712 -6.63347 -3.63519 -3.98868 33.46917 5.77534 6.37799 -24.88156 -6.43459 2.25109 3.31994
0.00275 4e-05 0.00295 -179.89782 -27.32025 1.13721 42.11178 -0.82205 -6.44396 -12.85933 6.76354 -1.23002 -16.73497 -4.06677 -14.4507 20.42349 116.90739 12.11711 5.99742 -23.57993 7.89409 -1.65531 33.33175 -105.24267 15.30932 -2.17298 28.32738 -4.21239 -10.05914 -20.70476 -6.59189 -3.58232 -3.96134 33.49328 5.76788 6.41453 -24.92604 -6.43463 2.2698 3.3287
0.00284 0.0001 0.0038 -180.16737 -27.37207 1.09575 42.14823 -0.76852 -6.46092 -12.90055 6.82686 -1.23089 -16.68175 -4.11941 -14.41764 20.38004 116.77226 12.05461 5.99741 -23.86673 7.93632 -1.65961 33.72111 -105.28107 15.36301 -2.17415 28.39451 -4.30904 -10.26011 -20.69674 -6.55456 -3.52977 -3.93491 33.53315 5.75184 6.4215 -24.98013 -6.43498 2.29504 3.34123
0.00293 0.00015 0.00458 -180.42234 -27.41572 1.05715 42.1799 -0.72054 -6.4762 -12.94487 6.88704 -1.23184 -16.63636 -4.16638 -14.38995 20.3415 116.70265 12.00872 6.00526 -24.13215 7.96916 -1.64357 34.07497 -105.41939 15.44744 -2.19158 28.45089 -4.40759 -10.49126 -20.68914 -6.51631 -3.47833 -3.90873 33.56341 5.74002 6.44754 -25.02933 -6.4349 2.31694 3.35187
0.00307 0.00021 0.00532 -180.6614 -27.46194 1.02168 42.21791 -0.67261 -6.48317 -12.98752 6.93975 -1.23279 -16.59497 -4.21769 -14.33299 20.31032 116.36216 11.90927 5.96834 -24.37914 8.01951 -1.69435 34.41753 -105.03247 15.35112 -2.12881 28.5082 -4.51473 -10.7809 -20.68115 -6.47384 -3.42168 -3.87981 33.60415 5.72765 6.45213 -25.0807 -6.43596 2.34011 3.36312
0.0031 0.00025 0.00621 -180.94366 -27.50672 0.97787 42.2445 -0.62192 -6.50951 -13.03272 7.01048 -1.23369 -16.54116 -4.26228 -14.33707 20.26088 116.57693 11.91805 6.02468 -24.67658 8.03786 -1.61266 34.80056 -105.71159 15.62385 -2.22819 28.56904 -4.60244 -10.9268 -20.67391 -6.4411 -3.37584 -3.85673 33.62664 5.71336 6.49138 -25.12989 -6.43481 2.36257 3.37418
0.00287 0.00025 0.00745 -181.33031 -27.54352 0.91261 42.23672 -0.56444 -6.58624 -13.08195 7.12903 -1.23447 -16.45322 -4.28706 -14.51487 20.15977 118.39917 12.23917 6.34961 -25.11159 7.94824 -1.12086 35.3022 -109.71962 17.04353 -2.836 28.63446 -4.63401 -10.6895 -20.66881 -6.43491 -3.36087 -3.85017 33.59589 5.70459 6.65922 -25.17021 -6.42664 2.37804 3.38218
0.00252 0.00023 0.00884 -181.75975 -27.57816 0.83937 42.21722 -0.50513 -6.68269 -13.1349 7.26507 -1.23521 -16.3543 -4.30466 -14.75221 20.04192 120.76334 12.66686 6.76518 -25.59254 7.82898 -0.5027 35.83603 -114.73353 18.81181 -3.59672 28.70269 -4.64733 -10.31271 -20.66502 -6.43825 -3.3566 -3.84936 33.54593 5.6924 6.8581 -25.2081 -6.4164 2.39319 3.39015
0.0022 0.00022 0.01019 -182.17319 -27.61386 0.76993 42.20397 -0.44796 -6.77053 -13.18896 7.39282 -1.23599 -16.26347 -4.32452 -14.95904 19.93467 122.83438 13.03879 7.13167 -26.04513 7.73467 0.02899 36.33734 -119.00885 20.32661 -4.244 28.76912 -4.67191 -10.00662 -20.66007 -6.43672 -3.3467 -3.8455 33.50417 5.67624 7.02605 -25.24745 -6.40765 2.41078 3.39922
0.00195 0.00022 0.01144 -182.5744 -27.65024 0.69915 42.1877 -0.38436 -6.85603 -13.23055 7.52294 -1.23665 -16.15897 -4.34829 -15.18303 19.81338 125.11536 13.44331 7.53418 -26.53363 7.59315 0.68024 36.91865 -124.43053 22.22859 -5.06991 28.83794 -4.68318 -9.66677 -20.65542 -6.4375 -3.33991 -3.84348 33.46556 5.68373 7.26432 -25.28565 -6.39655 2.41901 3.40391
0.00154 0.00018 0.01293 -183.00957 -27.68393 0.62977 42.17405 -0.33447 -6.95241 -13.29964 7.65144 -1.23757 -16.08048 -4.3629 -15.38228 19.71863 127.07255 13.80297 7.88001 -26.95459 7.54166 1.11606 37.338 -127.75819 23.42565 -5.56903 28.90291 -4.71855 -9.36474 -20.65306 -6.43579 -3.32933 -3.83905 33.41518 5.6405 7.36348 -25.32553 -6.38988 2.44645 3.4176
0.00071 9e-05 0.01501 -183.53811 -27.71521 0.56312 42.17662 -0.31783 -7.06173 -13.43876 7.77692 -1.23915 -16.07729 -4.34694 -15.52545 19.69296 128.13964 14.0345 8.07469 -27.20227 7.75713 0.89265 37.32229 -124.55885 22.41926 -5.0471 28.95191 -4.82021 -9.20772 -20.63759 -6.42404 -3.30424 -3.82584 33.34055 5.46507 7.07767 -25.37076 -6.3957 2.52776 3.45643
